<svg width="69" height="40" viewBox="0 0 69 40" fill="none" xmlns="http://www.w3.org/2000/svg">
<path d="M21.8358 13.0493C1.38153 16.8518 1.70178 31.0856 0.0103129 39.9989C8.72697 32.7957 13.7491 30.1648 25.6479 29.034C37.5466 27.9031 57.2564 23.3481 68.9712 18.2215L63.6068 0.808009C57.9798 4.63998 47.8955 8.20472 21.8358 13.0493Z" fill="black"/>
<path d="M10.2406 24.1419L9.16311 18.2501C9.94675 17.6258 11.6808 16.4109 13.8849 15.4482L14.8284 20.5533L18.2517 19.9577L17.3513 14.1386C19.2126 13.5905 20.3777 13.3143 22.431 12.9376L24.7974 29.1254C22.5416 29.3711 21.6668 29.4743 19.6961 29.838L19.0021 25.0903L13.4234 26.0609C12.5056 26.2185 12.0386 26.1225 11.279 25.6705C10.6791 25.2114 10.4525 24.8755 10.2406 24.1419Z" fill="white"/>
<path d="M53.2659 23.5931L50.9494 8.26356C52.895 7.9209 54.2098 7.65511 56.0438 7.31255L58.1909 22.1469C56.1832 22.7716 53.6956 23.4924 53.2659 23.5931Z" fill="white"/>
<path d="M43.5082 8.442C51.7115 6.35349 56.9576 4.57422 61.9192 1.86625C62.3536 3.77925 62.0575 2.46077 62.4807 4.27336L44.1721 13.4724C43.8896 11.4648 43.5678 8.85787 43.5082 8.442Z" fill="white"/>
<path d="M41.0136 19.7979L39.7127 9.3621C34.4422 10.5638 31.2115 11.258 26.0482 12.2465L28.4482 28.7206C30.5062 28.5297 31.892 28.2363 33.596 27.9672L32.8995 23.2365L38.5207 22.5544C39.445 22.4402 39.8644 22.2134 40.461 21.5613C40.9027 20.9484 41.0226 20.5615 41.0136 19.7979Z" fill="white"/>
</svg>
